<svg width="362" height="184" viewBox="0 0 362 184" version="1.1" xmlns="http://www.w3.org/2000/svg" xmlns:xlink="http://www.w3.org/1999/xlink">
<title>ZuriHac 2018</title>
<desc>Created using Figma</desc>
<g id="Canvas" transform="translate(724 -744)">
<g id="ZuriHac 2018">
<g id="Group">
<g id="Vector" opacity="0.9">
<use xlink:href="#path0_fill" transform="translate(-483 760)" fill="#FFFFFF"/>
<use xlink:href="#path0_fill" transform="translate(-483 760)" fill="url(#paint1_linear)"/>
</g>
<g id="Vector" opacity="0.9">
<use xlink:href="#path1_fill" transform="translate(-405.057 817.305)" fill="#FFFFFF"/>
<use xlink:href="#path1_fill" transform="translate(-405.057 817.305)" fill="url(#paint3_linear)"/>
</g>
<g id="Vector" opacity="0.9">
<use xlink:href="#path2_fill" transform="translate(-423.511 790.055)" fill="#FFFFFF"/>
<use xlink:href="#path2_fill" transform="translate(-423.511 790.055)" fill="url(#paint5_linear)"/>
</g>
</g>
<g id="8 - 10 June">
<use xlink:href="#path3_fill" transform="translate(-622 869.683)" fill="#FFFFFF"/>
<use xlink:href="#path3_fill" transform="translate(-622 869.683)" fill="url(#paint7_linear)"/>
</g>
<g id="2018">
<use xlink:href="#path4_fill" transform="translate(-622 798.683)" fill="#FFFFFF"/>
<use xlink:href="#path4_fill" transform="translate(-622 798.683)" fill="url(#paint9_linear)"/>
</g>
<g id="ZuriHac">
<use xlink:href="#path5_fill" transform="translate(-724 744)" fill="#FFFFFF"/>
<use xlink:href="#path5_fill" transform="translate(-724 744)" fill="url(#paint11_linear)"/>
</g>
</g>
</g>
<defs>
<linearGradient id="paint1_linear" x1="0" y1="0" x2="1" y2="0" gradientUnits="userSpaceOnUse" gradientTransform="matrix(6.21456e-15 109 -101.491 6.67433e-15 101.491 -6.67433e-15)">
<stop offset="0" stop-color="#FFFFFF"/>
<stop offset="1" stop-color="#FFFFFF" stop-opacity="0"/>
</linearGradient>
<linearGradient id="paint3_linear" x1="0" y1="0" x2="1" y2="0" gradientUnits="userSpaceOnUse" gradientTransform="matrix(2.63646e-15 18.1675 -43.0566 1.11244e-15 43.0566 -1.11244e-15)">
<stop offset="0" stop-color="#FFFFFF"/>
<stop offset="1" stop-color="#FFFFFF" stop-opacity="0"/>
</linearGradient>
<linearGradient id="paint5_linear" x1="0" y1="0" x2="1" y2="0" gradientUnits="userSpaceOnUse" gradientTransform="matrix(3.76643e-15 18.1675 -61.5105 1.11244e-15 61.5105 -1.11244e-15)">
<stop offset="0" stop-color="#FFFFFF"/>
<stop offset="1" stop-color="#FFFFFF" stop-opacity="0"/>
</linearGradient>
<linearGradient id="paint7_linear" x1="0" y1="0" x2="1" y2="0" gradientUnits="userSpaceOnUse" gradientTransform="matrix(1.16954e-14 58 -191 3.55148e-15 191 -3.55148e-15)">
<stop offset="0" stop-color="#FFFFFF"/>
<stop offset="1" stop-color="#FFFFFF" stop-opacity="0"/>
</linearGradient>
<linearGradient id="paint9_linear" x1="0" y1="0" x2="1" y2="0" gradientUnits="userSpaceOnUse" gradientTransform="matrix(8.1439e-15 87 -133 5.32721e-15 133 -5.32721e-15)">
<stop offset="0" stop-color="#FFFFFF"/>
<stop offset="1" stop-color="#FFFFFF" stop-opacity="0"/>
</linearGradient>
<linearGradient id="paint11_linear" x1="0" y1="0" x2="1" y2="0" gradientUnits="userSpaceOnUse" gradientTransform="matrix(1.41447e-14 87 -231 5.32721e-15 231 -5.32721e-15)">
<stop offset="0" stop-color="#FFFFFF"/>
<stop offset="1" stop-color="#FFFFFF" stop-opacity="0"/>
</linearGradient>
<path id="path0_fill" d="M 1.8849 109C 1.08292 109 0.60721 108.103 1.05689 107.439L 36.5269 55.0607C 36.7562 54.7221 36.7562 54.2779 36.5269 53.9393L 1.05689 1.56072C 0.60721 0.896667 1.08292 0 1.8849 0L 27.1491 0C 27.4809 0 27.791 0.164565 27.9771 0.439292L 100.435 107.439C 100.884 108.103 100.409 109 99.6066 109L 74.3424 109C 74.0106 109 73.7004 108.835 73.5144 108.561L 51.5744 76.1609C 51.1777 75.5751 50.315 75.5751 49.9184 76.1608L 27.9771 108.561C 27.791 108.835 27.4809 109 27.1491 109L 1.8849 109Z"/>
<path id="path1_fill" d="M 12.8319 18.1675C 12.5001 18.1675 12.1899 18.0029 12.0039 17.7282L 1.0568 1.56189C 0.60714 0.897856 1.08283 0.00122024 1.88479 0.00119693L 42.0566 2.90724e-05C 42.6089 1.30163e-05 43.0566 0.447733 43.0566 1.00003L 43.0566 17.1675C 43.0566 17.7198 42.6089 18.1675 42.0566 18.1675L 12.8319 18.1675Z"/>
<path id="path2_fill" d="M 12.8331 18.1675C 12.5014 18.1675 12.1912 18.0029 12.0051 17.7282L 1.05694 1.56195C 0.607241 0.897913 1.08293 0.00122952 1.88492 0.0012132L 60.5105 2.01899e-05C 61.0628 8.9509e-06 61.5105 0.447728 61.5105 1.00002L 61.5105 17.1675C 61.5105 17.7198 61.0628 18.1675 60.5105 18.1675L 12.8331 18.1675Z"/>
<path id="path3_fill" d="M 12.384 14.44C 14.976 14.44 16.992 15.064 18.432 16.312C 19.904 17.56 20.64 19.272 20.64 21.448C 20.64 22.856 20.272 24.088 19.536 25.144C 18.8 26.2 17.76 27.16 16.416 28.024L 16.416 28.312C 17.984 29.08 19.216 29.976 20.112 31C 21.008 31.992 21.456 33.336 21.456 35.032C 21.456 37.624 20.512 39.672 18.624 41.176C 16.768 42.68 14.288 43.432 11.184 43.432C 8.272 43.432 6 42.76 4.368 41.416C 2.768 40.072 1.968 38.328 1.968 36.184C 1.968 34.52 2.432 33.144 3.36 32.056C 4.288 30.968 5.584 30.056 7.248 29.32L 7.248 29.032C 5.936 28.296 4.88 27.416 4.08 26.392C 3.28 25.336 2.88 23.992 2.88 22.36C 2.88 19.928 3.744 18.008 5.472 16.6C 7.2 15.16 9.504 14.44 12.384 14.44ZM 11.952 18.856C 10.736 18.856 9.792 19.16 9.12 19.768C 8.448 20.344 8.112 21.144 8.112 22.168C 8.112 23.224 8.48 24.072 9.216 24.712C 9.952 25.32 11.008 25.896 12.384 26.44C 13.408 25.864 14.208 25.256 14.784 24.616C 15.36 23.976 15.648 23.16 15.648 22.168C 15.648 21.144 15.312 20.344 14.64 19.768C 14 19.16 13.104 18.856 11.952 18.856ZM 11.28 31C 10 31.48 9.008 32.04 8.304 32.68C 7.632 33.32 7.296 34.216 7.296 35.368C 7.296 36.52 7.68 37.448 8.448 38.152C 9.248 38.824 10.336 39.16 11.712 39.16C 13.12 39.16 14.208 38.824 14.976 38.152C 15.776 37.448 16.176 36.568 16.176 35.512C 16.176 34.424 15.776 33.576 14.976 32.968C 14.176 32.328 12.944 31.672 11.28 31ZM 44.1855 28.216L 44.1855 32.152L 32.7615 33.928L 32.2335 33.4L 32.2335 29.416L 43.6575 27.688L 44.1855 28.216ZM 65.3093 19.144L 64.9253 33.016L 65.2613 43L 58.7812 43L 59.0692 33.688L 59.0692 25.72L 53.6452 27.16L 53.1653 26.824L 53.1653 21.688L 64.3972 18.472L 65.3093 19.144ZM 83.0381 18.376C 86.3021 18.376 88.8141 19.432 90.5741 21.544C 92.3661 23.656 93.2621 26.648 93.2621 30.52C 93.2621 34.616 92.3021 37.8 90.3821 40.072C 88.4621 42.312 85.7421 43.432 82.2221 43.432C 78.9581 43.432 76.4301 42.376 74.6381 40.264C 72.8461 38.152 71.9501 35.192 71.9501 31.384C 71.9501 27.256 72.9101 24.056 74.8301 21.784C 76.7821 19.512 79.5181 18.376 83.0381 18.376ZM 82.5581 24.28C 80.6381 24.28 79.2141 24.824 78.2861 25.912C 77.3581 26.968 76.8941 28.648 76.8941 30.952C 76.8941 33.288 77.3581 35.016 78.2861 36.136C 79.2141 37.256 80.6541 37.816 82.6061 37.816C 84.5261 37.816 85.9501 37.288 86.8781 36.232C 87.8381 35.144 88.3181 33.48 88.3181 31.24C 88.3181 28.872 87.8381 27.128 86.8781 26.008C 85.9181 24.856 84.4781 24.28 82.5581 24.28ZM 114.423 32.824L 114.519 37.192C 114.519 39.016 114.215 40.568 113.607 41.848C 112.999 43.128 112.007 44.264 110.631 45.256C 109.287 46.248 107.431 47.192 105.063 48.088L 103.095 44.632L 103.095 44.056C 105.079 43.032 106.471 42.024 107.271 41.032C 108.103 40.008 108.519 38.696 108.519 37.096L 108.519 33.448L 108.231 16.888L 103.143 17.032L 102.663 16.552L 102.999 12.088L 114.759 12.088L 114.423 32.824ZM 142.224 38.824L 141.648 42.184C 140.464 42.952 139.248 43.352 138 43.384C 137.072 43.224 136.304 42.856 135.696 42.28C 135.088 41.704 134.624 40.872 134.304 39.784L 133.872 39.784C 132.048 41.576 130.16 42.744 128.208 43.288C 125.776 43.288 123.92 42.744 122.64 41.656C 121.392 40.536 120.784 38.936 120.816 36.856L 120.912 31.192L 120.672 21.112L 126.864 20.584L 126.72 34.744C 126.688 35.864 126.912 36.712 127.392 37.288C 127.872 37.864 128.592 38.152 129.552 38.152C 130.96 38.152 132.352 37.528 133.728 36.28L 133.728 21.112L 139.824 20.584L 139.392 37.192C 139.392 37.704 139.472 38.072 139.632 38.296C 139.824 38.52 140.112 38.632 140.496 38.632C 140.848 38.632 141.28 38.568 141.792 38.44L 142.224 38.824ZM 159.437 29.08C 159.469 27.96 159.213 27.096 158.669 26.488C 158.157 25.848 157.405 25.528 156.413 25.528C 154.973 25.528 153.437 26.216 151.805 27.592L 151.805 33.16L 152.093 43L 145.709 43L 146.045 33.784L 145.805 21.112L 151.853 20.584L 151.853 23.848L 152.189 23.848C 153.949 22.248 155.869 21.096 157.949 20.392C 160.381 20.392 162.237 20.952 163.517 22.072C 164.797 23.16 165.405 24.744 165.341 26.824L 165.197 33.208L 165.485 43L 159.053 43L 159.437 29.08ZM 188.395 32.632L 175.435 32.728C 175.724 36.728 177.755 38.728 181.531 38.728C 183.516 38.728 185.724 38.168 188.156 37.048L 188.684 37.384L 187.724 42.136C 185.292 43.032 183.004 43.48 180.859 43.48C 177.339 43.48 174.571 42.456 172.555 40.408C 170.571 38.36 169.579 35.528 169.579 31.912C 169.579 28.328 170.555 25.496 172.507 23.416C 174.459 21.304 177.1 20.248 180.428 20.248C 183.276 20.248 185.468 21.032 187.004 22.6C 188.572 24.136 189.356 26.296 189.356 29.08C 189.356 29.816 189.275 30.744 189.115 31.864L 188.395 32.632ZM 183.787 28.36C 183.787 27.08 183.499 26.12 182.923 25.48C 182.347 24.808 181.5 24.472 180.38 24.472C 179.132 24.472 178.091 24.888 177.26 25.72C 176.428 26.52 175.868 27.688 175.579 29.224L 183.691 29.032L 183.787 28.36Z"/>
<path id="path4_fill" d="M 17.424 28.208C 20.736 28.208 23.448 29 25.56 30.584C 27.672 32.12 28.728 34.256 28.728 36.992C 28.728 38.912 28.08 41.048 26.784 43.4C 25.536 45.704 23.496 48.368 20.664 51.392L 15.264 57.368L 15.408 57.656L 25.128 57.656L 31.608 57.08L 32.184 57.728L 31.032 65.432L 22.32 65L 5.976 65L 3.312 65.144L 2.808 64.784L 2.808 58.952L 12.528 49.376C 14.832 47.024 16.536 45.08 17.64 43.544C 18.744 42.008 19.296 40.664 19.296 39.512C 19.296 38.552 18.936 37.784 18.216 37.208C 17.496 36.632 16.488 36.344 15.192 36.344C 13.656 36.344 12.048 36.728 10.368 37.496C 8.688 38.264 7.128 39.296 5.688 40.592L 4.608 40.592L 3.024 33.176C 7.968 29.864 12.768 28.208 17.424 28.208ZM 53.3306 28.064C 58.2266 28.064 61.9946 29.648 64.6346 32.816C 67.3226 35.984 68.6666 40.472 68.6666 46.28C 68.6666 52.424 67.2266 57.2 64.3466 60.608C 61.4666 63.968 57.3866 65.648 52.1066 65.648C 47.2106 65.648 43.4186 64.064 40.7306 60.896C 38.0426 57.728 36.6986 53.288 36.6986 47.576C 36.6986 41.384 38.1386 36.584 41.0186 33.176C 43.9466 29.768 48.0506 28.064 53.3306 28.064ZM 52.6106 36.92C 49.7306 36.92 47.5946 37.736 46.2026 39.368C 44.8106 40.952 44.1146 43.472 44.1146 46.928C 44.1146 50.432 44.8106 53.024 46.2026 54.704C 47.5946 56.384 49.7546 57.224 52.6826 57.224C 55.5626 57.224 57.6986 56.432 59.0906 54.848C 60.5306 53.216 61.2506 50.72 61.2506 47.36C 61.2506 43.808 60.5306 41.192 59.0906 39.512C 57.6506 37.784 55.4906 36.92 52.6106 36.92ZM 90.2295 29.216L 89.6535 50.024L 90.1575 65L 80.4375 65L 80.8695 51.032L 80.8695 39.08L 72.7335 41.24L 72.0135 40.736L 72.0135 33.032L 88.8615 28.208L 90.2295 29.216ZM 115.959 22.16C 119.847 22.16 122.871 23.096 125.031 24.968C 127.239 26.84 128.343 29.408 128.343 32.672C 128.343 34.784 127.791 36.632 126.687 38.216C 125.583 39.8 124.023 41.24 122.007 42.536L 122.007 42.968C 124.359 44.12 126.207 45.464 127.551 47C 128.895 48.488 129.567 50.504 129.567 53.048C 129.567 56.936 128.151 60.008 125.319 62.264C 122.535 64.52 118.815 65.648 114.159 65.648C 109.791 65.648 106.383 64.64 103.935 62.624C 101.535 60.608 100.335 57.992 100.335 54.776C 100.335 52.28 101.031 50.216 102.423 48.584C 103.815 46.952 105.759 45.584 108.255 44.48L 108.255 44.048C 106.287 42.944 104.703 41.624 103.503 40.088C 102.303 38.504 101.703 36.488 101.703 34.04C 101.703 30.392 102.999 27.512 105.591 25.4C 108.183 23.24 111.639 22.16 115.959 22.16ZM 115.311 28.784C 113.487 28.784 112.071 29.24 111.063 30.152C 110.055 31.016 109.551 32.216 109.551 33.752C 109.551 35.336 110.103 36.608 111.207 37.568C 112.311 38.48 113.895 39.344 115.959 40.16C 117.495 39.296 118.695 38.384 119.559 37.424C 120.423 36.464 120.855 35.24 120.855 33.752C 120.855 32.216 120.351 31.016 119.343 30.152C 118.383 29.24 117.039 28.784 115.311 28.784ZM 114.303 47C 112.383 47.72 110.895 48.56 109.839 49.52C 108.831 50.48 108.327 51.824 108.327 53.552C 108.327 55.28 108.903 56.672 110.055 57.728C 111.255 58.736 112.887 59.24 114.951 59.24C 117.063 59.24 118.695 58.736 119.847 57.728C 121.047 56.672 121.647 55.352 121.647 53.768C 121.647 52.136 121.047 50.864 119.847 49.952C 118.647 48.992 116.799 48.008 114.303 47Z"/>
<path id="path5_fill" d="M 13.68 57.584L 29.232 57.584L 37.08 56.936L 37.44 57.512L 36.648 65.216L 26.208 65L 7.704 65L 2.16 65.288L 2.16 58.304L 25.416 26.12L 10.728 26.12L 2.88 26.768L 2.448 26.264L 3.168 18.56L 32.256 18.632L 36.72 18.56L 36.72 25.688L 13.68 57.584ZM 70.5746 56.288C 70.5746 57.104 70.6946 57.68 70.9346 58.016C 71.1746 58.304 71.6066 58.448 72.2306 58.448C 72.7106 58.448 73.3346 58.352 74.1026 58.16L 74.8226 58.736L 73.9586 63.776C 72.4226 64.784 70.6706 65.384 68.7026 65.576C 65.6786 65.288 63.7586 63.488 62.9426 60.176L 62.2226 60.176C 59.4866 62.816 56.6786 64.568 53.7986 65.432C 50.1986 65.432 47.4386 64.616 45.5186 62.984C 43.5986 61.304 42.6386 58.904 42.6386 55.784L 42.8546 47.288L 42.4946 32.168L 51.7826 31.376L 51.4946 52.616C 51.4946 56.024 52.9346 57.728 55.8146 57.728C 57.8306 57.728 59.9186 56.792 62.0786 54.92L 62.0786 32.168L 71.1506 31.376L 70.5746 56.288ZM 98.8318 31.448C 99.2158 31.448 99.7918 31.496 100.56 31.592L 100.56 40.448L 99.6238 40.808C 98.7598 40.472 97.8718 40.304 96.9598 40.304C 94.1758 40.304 91.6558 42.08 89.3998 45.632L 89.3998 50.24L 89.9038 65L 80.3278 65L 80.8318 51.176L 80.3998 32.168L 89.5438 31.376L 89.4718 37.928L 89.9758 37.928C 92.3278 33.608 95.2798 31.448 98.8318 31.448ZM 110.402 15.104C 111.89 15.104 113.042 15.536 113.858 16.4C 114.722 17.264 115.154 18.464 115.154 20C 115.154 21.632 114.698 22.928 113.786 23.888C 112.874 24.848 111.626 25.328 110.042 25.328C 108.458 25.328 107.234 24.896 106.37 24.032C 105.554 23.168 105.146 21.944 105.146 20.36C 105.146 18.776 105.602 17.504 106.514 16.544C 107.474 15.584 108.77 15.104 110.402 15.104ZM 114.794 65L 105.218 65L 105.722 51.176L 105.29 32.168L 114.866 31.376L 114.29 50.24L 114.794 65ZM 163.532 65L 153.668 65L 154.244 51.176L 154.172 45.776L 143.66 45.632L 134.228 45.848L 134.156 50.312L 134.588 65L 124.796 65L 125.3 51.176L 124.796 18.632L 134.732 18.632L 134.372 37.712L 144.308 37.928L 154.028 37.712L 153.668 18.632L 163.676 18.632L 163.1 50.312L 163.532 65ZM 185.826 30.872C 189.522 30.872 192.402 31.712 194.466 33.392C 196.578 35.024 197.634 37.328 197.634 40.304C 197.634 41.168 197.49 43.904 197.202 48.512C 196.962 54.032 196.842 56.624 196.842 56.288C 196.842 57.104 196.962 57.68 197.202 58.016C 197.442 58.304 197.874 58.448 198.498 58.448C 198.978 58.448 199.602 58.352 200.37 58.16L 201.09 58.736L 200.226 63.776C 198.69 64.784 196.938 65.384 194.97 65.576C 191.946 65.288 190.098 63.536 189.426 60.32L 188.922 60.32C 186.522 62.864 184.05 64.64 181.506 65.648C 178.05 65.6 175.338 64.688 173.37 62.912C 171.402 61.136 170.418 58.712 170.418 55.64C 170.418 50.984 172.89 48.176 177.834 47.216L 188.85 45.128L 188.85 42.176C 188.85 39.056 187.314 37.496 184.242 37.496C 181.362 37.496 177.93 38.888 173.946 41.672L 173.226 41.24L 172.146 34.904C 176.37 32.216 180.93 30.872 185.826 30.872ZM 181.146 51.608C 179.658 51.944 178.914 52.952 178.914 54.632C 178.914 55.88 179.25 56.864 179.922 57.584C 180.594 58.256 181.53 58.592 182.73 58.592C 184.602 58.592 186.57 57.488 188.634 55.28L 188.778 49.952L 181.146 51.608ZM 221.066 30.872C 224.426 30.872 227.378 31.472 229.922 32.672L 228.338 40.304L 227.546 40.664C 225.098 39.32 222.914 38.648 220.994 38.648C 218.786 38.648 217.082 39.44 215.882 41.024C 214.682 42.608 214.082 44.864 214.082 47.792C 214.082 51.152 214.73 53.72 216.026 55.496C 217.322 57.272 219.17 58.16 221.57 58.16C 223.73 58.16 226.13 57.56 228.77 56.36L 229.49 56.936L 228.554 64.352C 225.674 65.264 222.722 65.72 219.698 65.72C 215.09 65.72 211.49 64.232 208.898 61.256C 206.306 58.232 205.01 54.032 205.01 48.656C 205.01 43.088 206.426 38.744 209.258 35.624C 212.09 32.456 216.026 30.872 221.066 30.872Z"/>
</defs>
</svg>
