<svg width="362" height="184" viewBox="0 0 362 184" version="1.1" xmlns="http://www.w3.org/2000/svg" xmlns:xlink="http://www.w3.org/1999/xlink" xmlns:figma="http://www.figma.com/figma/ns">
<title>ZuriHac 2017</title>
<desc>Created using Figma</desc>
<g id="Canvas" transform="translate(216 -1207)" figma:type="canvas">
<g id="ZuriHac 2017" style="mix-blend-mode:normal;" figma:type="frame">
<g id="Group" style="mix-blend-mode:normal;" figma:type="frame">
<g id="Vector" style="mix-blend-mode:normal;" opacity="0.9" figma:type="vector">
<use xlink:href="#path0_fill" transform="translate(25 1223)" fill="#FFFFFF" style="mix-blend-mode:normal;"/>
<use xlink:href="#path0_fill" transform="translate(25 1223)" fill="url(#paint1_linear)" style="mix-blend-mode:normal;"/>
</g>
<g id="Vector" style="mix-blend-mode:normal;" opacity="0.9" figma:type="vector">
<use xlink:href="#path1_fill" transform="translate(102.943 1280.3)" fill="#FFFFFF" style="mix-blend-mode:normal;"/>
<use xlink:href="#path1_fill" transform="translate(102.943 1280.3)" fill="url(#paint3_linear)" style="mix-blend-mode:normal;"/>
</g>
<g id="Vector" style="mix-blend-mode:normal;" opacity="0.9" figma:type="vector">
<use xlink:href="#path2_fill" transform="translate(84.4894 1253.05)" fill="#FFFFFF" style="mix-blend-mode:normal;"/>
<use xlink:href="#path2_fill" transform="translate(84.4894 1253.05)" fill="url(#paint5_linear)" style="mix-blend-mode:normal;"/>
</g>
</g>
<g id="9 - 11 June" style="mix-blend-mode:normal;" figma:type="text">
<use xlink:href="#path3_fill" transform="translate(-114 1332.68)" fill="#FFFFFF" style="mix-blend-mode:normal;"/>
<use xlink:href="#path3_fill" transform="translate(-114 1332.68)" fill="url(#paint7_linear)" style="mix-blend-mode:normal;"/>
</g>
<g id="2017" style="mix-blend-mode:normal;" figma:type="text">
<use xlink:href="#path4_fill" transform="translate(-114 1261.68)" fill="#FFFFFF" style="mix-blend-mode:normal;"/>
<use xlink:href="#path4_fill" transform="translate(-114 1261.68)" fill="url(#paint9_linear)" style="mix-blend-mode:normal;"/>
</g>
<g id="ZuriHac" style="mix-blend-mode:normal;" figma:type="text">
<use xlink:href="#path5_fill" transform="translate(-216 1207)" fill="#FFFFFF" style="mix-blend-mode:normal;"/>
<use xlink:href="#path5_fill" transform="translate(-216 1207)" fill="url(#paint11_linear)" style="mix-blend-mode:normal;"/>
</g>
</g>
</g>
<defs>
<linearGradient id="paint1_linear" x1="0" y1="0" x2="1" y2="0" gradientUnits="userSpaceOnUse" gradientTransform="matrix(6.21456e-15 109 -101.491 6.67433e-15 101.491 -6.67433e-15)">
<stop offset="0" stop-color="#FFFFFF"/>
<stop offset="1" stop-color="#FFFFFF" stop-opacity="0"/>
</linearGradient>
<linearGradient id="paint3_linear" x1="0" y1="0" x2="1" y2="0" gradientUnits="userSpaceOnUse" gradientTransform="matrix(2.63646e-15 18.1675 -43.0566 1.11244e-15 43.0566 -1.11244e-15)">
<stop offset="0" stop-color="#FFFFFF"/>
<stop offset="1" stop-color="#FFFFFF" stop-opacity="0"/>
</linearGradient>
<linearGradient id="paint5_linear" x1="0" y1="0" x2="1" y2="0" gradientUnits="userSpaceOnUse" gradientTransform="matrix(3.76643e-15 18.1675 -61.5105 1.11244e-15 61.5105 -1.11244e-15)">
<stop offset="0" stop-color="#FFFFFF"/>
<stop offset="1" stop-color="#FFFFFF" stop-opacity="0"/>
</linearGradient>
<linearGradient id="paint7_linear" x1="0" y1="0" x2="1" y2="0" gradientUnits="userSpaceOnUse" gradientTransform="matrix(1.10831e-14 58 -181 3.55148e-15 181 -3.55148e-15)">
<stop offset="0" stop-color="#FFFFFF"/>
<stop offset="1" stop-color="#FFFFFF" stop-opacity="0"/>
</linearGradient>
<linearGradient id="paint9_linear" x1="0" y1="0" x2="1" y2="0" gradientUnits="userSpaceOnUse" gradientTransform="matrix(7.89897e-15 87 -129 5.32721e-15 129 -5.32721e-15)">
<stop offset="0" stop-color="#FFFFFF"/>
<stop offset="1" stop-color="#FFFFFF" stop-opacity="0"/>
</linearGradient>
<linearGradient id="paint11_linear" x1="0" y1="0" x2="1" y2="0" gradientUnits="userSpaceOnUse" gradientTransform="matrix(1.41447e-14 87 -231 5.32721e-15 231 -5.32721e-15)">
<stop offset="0" stop-color="#FFFFFF"/>
<stop offset="1" stop-color="#FFFFFF" stop-opacity="0"/>
</linearGradient>
<path id="path0_fill" d="M 1.8849 109C 1.08292 109 0.60721 108.103 1.05689 107.439L 36.5269 55.0607C 36.7562 54.7221 36.7562 54.2779 36.5269 53.9393L 1.05689 1.56072C 0.60721 0.896668 1.08292 0 1.8849 0L 27.1491 0C 27.4809 0 27.7911 0.164565 27.9771 0.439292L 100.435 107.439C 100.884 108.103 100.409 109 99.6066 109L 74.3424 109C 74.0106 109 73.7004 108.835 73.5144 108.561L 51.5744 76.1609C 51.1777 75.5751 50.315 75.5751 49.9184 76.1608L 27.9771 108.561C 27.7911 108.835 27.4809 109 27.1491 109L 1.8849 109Z"/>
<path id="path1_fill" d="M 12.8319 18.1675C 12.5001 18.1675 12.1899 18.0029 12.0039 17.7282L 1.0568 1.56189C 0.60714 0.897856 1.08283 0.00122024 1.88479 0.00119693L 42.0566 2.90724e-05C 42.6089 1.30163e-05 43.0566 0.447733 43.0566 1.00003L 43.0566 17.1675C 43.0566 17.7198 42.6089 18.1675 42.0566 18.1675L 12.8319 18.1675Z"/>
<path id="path2_fill" d="M 12.8331 18.1675C 12.5014 18.1675 12.1912 18.0029 12.0051 17.7282L 1.05694 1.56195C 0.607241 0.897913 1.08293 0.00122952 1.88492 0.0012132L 60.5105 2.01899e-05C 61.0628 8.9509e-06 61.5105 0.447727 61.5105 1.00002L 61.5105 17.1675C 61.5105 17.7198 61.0628 18.1675 60.5105 18.1675L 12.8331 18.1675Z"/>
<path id="path3_fill" d="M 9.552 36.04C 7.088 36.04 5.136 35.256 3.696 33.688C 2.288 32.088 1.584 30.088 1.584 27.688C 1.584 25.96 1.968 24.376 2.736 22.936C 3.536 21.496 4.704 20.36 6.24 19.528C 7.776 18.664 9.616 18.232 11.76 18.232C 14.928 18.232 17.36 19.192 19.056 21.112C 20.752 23 21.6 25.64 21.6 29.032C 21.6 32.936 20.384 36.472 17.952 39.64C 15.52 42.808 12.08 45.368 7.632 47.32L 7.296 47.32L 2.928 44.488L 2.928 43.864C 6.288 42.584 8.896 41.272 10.752 39.928C 12.64 38.584 13.984 36.984 14.784 35.128L 14.4 34.696C 12.96 35.592 11.344 36.04 9.552 36.04ZM 11.472 22.408C 10.16 22.408 9.136 22.808 8.4 23.608C 7.696 24.376 7.344 25.48 7.344 26.92C 7.344 30.024 8.704 31.576 11.424 31.576C 12.832 31.576 14.288 31.096 15.792 30.136L 15.792 29.128C 15.792 26.856 15.456 25.176 14.784 24.088C 14.144 22.968 13.04 22.408 11.472 22.408ZM 42.7792 32.152L 31.3552 33.928L 30.8273 33.4L 30.8273 29.416L 42.2512 27.688L 42.7792 28.216L 42.7792 32.152ZM 62.5815 33.016L 62.9175 43L 56.4375 43L 56.7255 33.688L 56.7255 25.72L 51.3015 27.16L 50.8215 26.824L 50.8215 21.688L 62.0535 18.472L 62.9655 19.144L 62.5815 33.016ZM 79.8784 33.016L 80.2144 43L 73.7344 43L 74.0224 33.688L 74.0224 25.72L 68.5984 27.16L 68.1184 26.824L 68.1184 21.688L 79.3504 18.472L 80.2624 19.144L 79.8784 33.016ZM 104.441 37.192C 104.441 39.016 104.137 40.568 103.529 41.848C 102.921 43.128 101.929 44.264 100.553 45.256C 99.2089 46.248 97.3529 47.192 94.9849 48.088L 93.0169 44.632L 93.0169 44.056C 95.0009 43.032 96.3929 42.024 97.1929 41.032C 98.0249 40.008 98.4409 38.696 98.4409 37.096L 98.4409 33.448L 98.1529 16.888L 93.0649 17.032L 92.5849 16.552L 92.9209 12.088L 104.681 12.088L 104.345 32.824L 104.441 37.192ZM 129.362 37.192C 129.362 37.736 129.442 38.12 129.602 38.344C 129.762 38.536 130.05 38.632 130.466 38.632C 130.786 38.632 131.202 38.568 131.714 38.44L 132.194 38.824L 131.618 42.184C 130.594 42.856 129.426 43.256 128.114 43.384C 126.098 43.192 124.818 41.992 124.274 39.784L 123.794 39.784C 121.97 41.544 120.098 42.712 118.178 43.288C 115.778 43.288 113.938 42.744 112.658 41.656C 111.378 40.536 110.738 38.936 110.738 36.856L 110.882 31.192L 110.642 21.112L 116.834 20.584L 116.642 34.744C 116.642 37.016 117.602 38.152 119.522 38.152C 120.866 38.152 122.258 37.528 123.698 36.28L 123.698 21.112L 129.746 20.584L 129.362 37.192ZM 149.592 29.08C 149.592 26.712 148.584 25.528 146.568 25.528C 145.128 25.528 143.592 26.216 141.96 27.592L 141.96 33.16L 142.248 43L 135.864 43L 136.2 33.784L 135.912 21.112L 142.008 20.584L 142.008 23.848L 142.296 23.848C 144.12 22.216 146.056 21.064 148.104 20.392C 150.536 20.392 152.376 20.952 153.624 22.072C 154.904 23.16 155.528 24.744 155.496 26.824L 155.352 33.208L 155.592 43L 149.208 43L 149.592 29.08ZM 165.593 32.68C 165.849 36.712 167.833 38.728 171.545 38.728C 173.625 38.728 175.769 38.152 177.977 37L 178.505 37.336L 177.641 42.04C 175.401 43 173.161 43.48 170.921 43.48C 167.369 43.48 164.601 42.456 162.617 40.408C 160.665 38.36 159.689 35.544 159.689 31.96C 159.689 28.344 160.681 25.496 162.665 23.416C 164.649 21.336 167.337 20.296 170.729 20.296C 173.513 20.296 175.657 21.08 177.161 22.648C 178.665 24.184 179.417 26.328 179.417 29.08C 179.417 29.944 179.353 30.824 179.225 31.72L 178.313 32.632L 165.593 32.68ZM 173.897 28.36C 173.897 25.768 172.761 24.472 170.489 24.472C 169.241 24.472 168.201 24.888 167.369 25.72C 166.569 26.52 166.025 27.672 165.737 29.176L 173.801 28.936L 173.897 28.36Z"/>
<path id="path4_fill" d="M 17.424 28.208C 20.736 28.208 23.448 29 25.56 30.584C 27.672 32.12 28.728 34.256 28.728 36.992C 28.728 40.832 26.04 45.632 20.664 51.392L 15.264 57.368L 15.408 57.656L 25.128 57.656L 31.608 57.08L 32.184 57.728L 31.032 65.432L 22.32 65L 5.976 65L 3.312 65.144L 2.808 64.784L 2.808 58.952L 12.528 49.376C 14.832 47.024 16.536 45.08 17.64 43.544C 18.744 42.008 19.296 40.664 19.296 39.512C 19.296 38.552 18.936 37.784 18.216 37.208C 17.496 36.632 16.488 36.344 15.192 36.344C 12.024 36.344 8.856 37.76 5.688 40.592L 4.608 40.592L 3.024 33.176C 7.968 29.864 12.768 28.208 17.424 28.208ZM 53.3306 28.064C 58.2266 28.064 61.9946 29.648 64.6346 32.816C 67.3226 35.984 68.6666 40.472 68.6666 46.28C 68.6666 52.424 67.2266 57.2 64.3466 60.608C 61.4666 63.968 57.3866 65.648 52.1066 65.648C 47.2106 65.648 43.4186 64.064 40.7306 60.896C 38.0426 57.728 36.6986 53.288 36.6986 47.576C 36.6986 41.384 38.1386 36.584 41.0186 33.176C 43.9466 29.768 48.0506 28.064 53.3306 28.064ZM 52.6106 36.92C 49.7306 36.92 47.5946 37.736 46.2026 39.368C 44.8106 40.952 44.1146 43.472 44.1146 46.928C 44.1146 50.432 44.8106 53.024 46.2026 54.704C 47.5946 56.384 49.7546 57.224 52.6826 57.224C 58.3946 57.224 61.2506 53.936 61.2506 47.36C 61.2506 40.4 58.3706 36.92 52.6106 36.92ZM 89.6535 50.024L 90.1575 65L 80.4375 65L 80.8695 51.032L 80.8695 39.08L 72.7335 41.24L 72.0135 40.736L 72.0135 33.032L 88.8615 28.208L 90.2295 29.216L 89.6535 50.024ZM 123.087 28.568L 126.615 28.424L 126.615 35.48L 114.735 61.4L 110.703 72.2L 102.999 70.04L 102.423 68.528L 117.471 36.56L 105.591 36.56L 99.0388 37.208L 98.4628 36.416L 99.1108 28.352L 107.175 28.568L 123.087 28.568Z"/>
<path id="path5_fill" d="M 13.68 57.584L 29.232 57.584L 37.08 56.936L 37.44 57.512L 36.648 65.216L 26.208 65L 7.704 65L 2.16 65.288L 2.16 58.304L 25.416 26.12L 10.728 26.12L 2.88 26.768L 2.448 26.264L 3.168 18.56L 32.256 18.632L 36.72 18.56L 36.72 25.688L 13.68 57.584ZM 70.5746 56.288C 70.5746 57.104 70.6946 57.68 70.9346 58.016C 71.1746 58.304 71.6066 58.448 72.2306 58.448C 72.7106 58.448 73.3346 58.352 74.1026 58.16L 74.8226 58.736L 73.9586 63.776C 72.4226 64.784 70.6706 65.384 68.7026 65.576C 65.6786 65.288 63.7586 63.488 62.9426 60.176L 62.2226 60.176C 59.4866 62.816 56.6786 64.568 53.7986 65.432C 50.1986 65.432 47.4386 64.616 45.5186 62.984C 43.5986 61.304 42.6386 58.904 42.6386 55.784L 42.8546 47.288L 42.4946 32.168L 51.7826 31.376L 51.4946 52.616C 51.4946 56.024 52.9346 57.728 55.8146 57.728C 57.8306 57.728 59.9186 56.792 62.0786 54.92L 62.0786 32.168L 71.1506 31.376L 70.5746 56.288ZM 98.8318 31.448C 99.2158 31.448 99.7918 31.496 100.56 31.592L 100.56 40.448L 99.6238 40.808C 98.7598 40.472 97.8718 40.304 96.9598 40.304C 94.1758 40.304 91.6558 42.08 89.3998 45.632L 89.3998 50.24L 89.9038 65L 80.3278 65L 80.8318 51.176L 80.3998 32.168L 89.5438 31.376L 89.4718 37.928L 89.9758 37.928C 92.3278 33.608 95.2798 31.448 98.8318 31.448ZM 110.402 15.104C 111.89 15.104 113.042 15.536 113.858 16.4C 114.722 17.264 115.154 18.464 115.154 20C 115.154 21.632 114.698 22.928 113.786 23.888C 112.874 24.848 111.626 25.328 110.042 25.328C 108.458 25.328 107.234 24.896 106.37 24.032C 105.554 23.168 105.146 21.944 105.146 20.36C 105.146 18.776 105.602 17.504 106.514 16.544C 107.474 15.584 108.77 15.104 110.402 15.104ZM 114.794 65L 105.218 65L 105.722 51.176L 105.29 32.168L 114.866 31.376L 114.29 50.24L 114.794 65ZM 163.532 65L 153.668 65L 154.244 51.176L 154.172 45.776L 143.66 45.632L 134.228 45.848L 134.156 50.312L 134.588 65L 124.796 65L 125.3 51.176L 124.796 18.632L 134.732 18.632L 134.372 37.712L 144.308 37.928L 154.028 37.712L 153.668 18.632L 163.676 18.632L 163.1 50.312L 163.532 65ZM 185.826 30.872C 189.522 30.872 192.402 31.712 194.466 33.392C 196.578 35.024 197.634 37.328 197.634 40.304C 197.634 41.168 197.49 43.904 197.202 48.512C 196.962 54.032 196.842 56.624 196.842 56.288C 196.842 57.104 196.962 57.68 197.202 58.016C 197.442 58.304 197.874 58.448 198.498 58.448C 198.978 58.448 199.602 58.352 200.37 58.16L 201.09 58.736L 200.226 63.776C 198.69 64.784 196.938 65.384 194.97 65.576C 191.946 65.288 190.098 63.536 189.426 60.32L 188.922 60.32C 186.522 62.864 184.05 64.64 181.506 65.648C 178.05 65.6 175.338 64.688 173.37 62.912C 171.402 61.136 170.418 58.712 170.418 55.64C 170.418 50.984 172.89 48.176 177.834 47.216L 188.85 45.128L 188.85 42.176C 188.85 39.056 187.314 37.496 184.242 37.496C 181.362 37.496 177.93 38.888 173.946 41.672L 173.226 41.24L 172.146 34.904C 176.37 32.216 180.93 30.872 185.826 30.872ZM 181.146 51.608C 179.658 51.944 178.914 52.952 178.914 54.632C 178.914 55.88 179.25 56.864 179.922 57.584C 180.594 58.256 181.53 58.592 182.73 58.592C 184.602 58.592 186.57 57.488 188.634 55.28L 188.778 49.952L 181.146 51.608ZM 221.066 30.872C 224.426 30.872 227.378 31.472 229.922 32.672L 228.338 40.304L 227.546 40.664C 225.098 39.32 222.914 38.648 220.994 38.648C 218.786 38.648 217.082 39.44 215.882 41.024C 214.682 42.608 214.082 44.864 214.082 47.792C 214.082 51.152 214.73 53.72 216.026 55.496C 217.322 57.272 219.17 58.16 221.57 58.16C 223.73 58.16 226.13 57.56 228.77 56.36L 229.49 56.936L 228.554 64.352C 225.674 65.264 222.722 65.72 219.698 65.72C 215.09 65.72 211.49 64.232 208.898 61.256C 206.306 58.232 205.01 54.032 205.01 48.656C 205.01 43.088 206.426 38.744 209.258 35.624C 212.09 32.456 216.026 30.872 221.066 30.872Z"/>
</defs>
</svg>
